<?xml version="1.0" encoding="UTF-8"?>
<svg id="Mono-Icon" xmlns="http://www.w3.org/2000/svg" viewBox="0 0 405.46 425">
  <path d="M403.21,385.26c-15.31-74.62-66.11-135.11-132.39-160.47-20,11.77-43.22,18.67-68.09,18.85-24.87-.19-48.09-7.1-68.1-18.85C68.36,250.13,17.54,310.64,2.25,385.26c-2.47,12.04-9.65,39.74,26.94,39.74h347.08c36.58,0,29.42-27.7,26.94-39.74ZM202.25,213.26c58.91,0,106.65-47.74,106.65-106.63S261.15,0,202.25,0s-106.66,47.74-106.66,106.63c0,58.89,47.75,106.63,106.66,106.63Z" style="fill: #6c6a77; stroke-width: 0px;"/>
</svg>