<?xml version="1.0" encoding="UTF-8"?>
<svg id="Layer_1" data-name="Layer 1" xmlns="http://www.w3.org/2000/svg" viewBox="0 0 80 80">
  <path d="M0,40C0,17.91,17.91,0,40,0s40,17.91,40,40-17.91,40-40,40S0,62.09,0,40ZM40,6C21.22,6,6,21.22,6,40c0,7.64,2.52,14.69,6.78,20.38,3.29-7.07,9.24-12.65,16.57-15.43-3.28-2.93-5.35-7.2-5.35-11.94,0-8.84,7.16-16,16-16s16,7.16,16,16c0,4.75-2.07,9.01-5.35,11.94,7.33,2.78,13.29,8.36,16.57,15.43,4.25-5.68,6.78-12.73,6.78-20.38,0-18.78-15.22-34-34-34h0ZM40,74c-8.74,0-16.71-3.3-22.73-8.72,3.21-9.47,12.18-16.28,22.73-16.28s19.52,6.81,22.73,16.28c-6.02,5.42-14,8.72-22.73,8.72ZM30,33c0-5.52,4.48-10,10-10s10,4.48,10,10-4.48,10-10,10-10-4.48-10-10Z" style="fill: #6c6a77; fill-rule: evenodd; stroke-width: 0px;"/>
</svg>